<svg xmlns="http://www.w3.org/2000/svg" viewBox="0 0 432.46 103.08"><defs><style>.a{fill:#8cc63f;}.b{fill:#00a99d;}</style></defs><path class="a" d="M109.24,118.51c-4.08,3.91-3.64,10.54-4.11,15.81-.56,6.45-.72,12.92-.82,19.4-.16,11.4,0,22.91,4.62,33.54,5.69,13.08,19.76,1.55,25.77-4.83a155.07,155.07,0,0,0,20.81-27.93l-12.34-1.61c1.7,6.51,3.28,13.07,5.1,19.55,1.4,5,3.55,10.12,8.15,12.93,10.24,6.27,22.17-5.71,28.93-12.31a99.67,99.67,0,0,0,19.83-27.48c3.68-7.6,11.24-26.77-1.65-30.24a4.08,4.08,0,0,0-4.9,2.78c-1.35,3.75-.33,7.9-1.33,11.8A48.9,48.9,0,0,1,193,140.3a87.74,87.74,0,0,1-14,19.79,98.2,98.2,0,0,1-8.59,8.11c-1.22,1-6.83,5.63-7.29,5.36-2.08-1.22-2.74-8-3.27-10l-3.73-14.22c-1.48-5.63-9.43-6.58-12.34-1.61A136.83,136.83,0,0,1,131,166.38q-3.34,4-7,7.82c-2.26,2.35-4.76,5.77-8.3,5.47l5.7,3.27c-5.53-9.57-5-21.43-5-32.13,0-5.82,0-11.64,0-17.46,0-5.26.79-10.51-2.64-14.84-1.09-1.37-3.38-1.08-4.51,0Z" transform="translate(-104.27 -90.16)"/><path class="a" d="M247.26,159.51c9.19-1.67,6.57-14-1.46-15.43-9.91-1.72-18.54,11.23-23.29,18.16-4.13,6-14.09,21-2,24.6,4.73,1.38,9.47-.79,13.71-2.7,5.84-2.63,10.43-6.69,15.88-9.86l-8.37-4.81a21.92,21.92,0,0,0,8.77,19.4c4.44,3.27,9.1-2.88,7-7A44,44,0,0,1,252.69,168c-.63-3.95-6.79-5.58-9.29-2.46-3.15,4-8.39,6.67-12.9,8.8-1.17.55-5.93,1.54-6.55,2.35-.8-.06-.65.24.45.92.65,1.21,1.07,1.21,1.25,0,.64-.56,1.43-3.19,1.77-3.9a77.85,77.85,0,0,1,7.14-12c2.54-3.49,6.32-8.94,10.58-9.86-5.06,1.09-2.87,8.59,2.12,7.69Z" transform="translate(-104.27 -90.16)"/><path class="a" d="M288.49,152.75c-.05-1.17,0-2.3-.85-3.19l.38.65-.35-.83a1,1,0,0,0-1.8-.23l-.53.71.52-.53c-1.07.64-1.27,1.73-1.6,2.84a2.15,2.15,0,1,0,4.23.58Z" transform="translate(-104.27 -90.16)"/><path class="a" d="M287.64,160.1c1.57-1.8,1.09-2.59,1.17-4.88a1.37,1.37,0,0,0-2.32-1c-2.48,2.66-1.7,6.23-1.61,9.55a25,25,0,0,1-3.52,13.76c-2.68,4.5,4,10.08,7.47,5.76,7.41-9.24,15.31-18.1,22.81-27.28,6.68-8.17,13-14.39,23.72-16.37,3.35-.61,3.78-5.66.94-7.19-11.17-6-22.1,2.44-29.1,11-8.79,10.73-16.54,22.23-25.1,33.12l7.47,5.77a31.66,31.66,0,0,0,4.57-17.76c-.28-4.28-1.5-10.31-6.69-10.74l-1,2.32-.67,1.56c-1.9,1.22.44,3.95,1.82,2.35Z" transform="translate(-104.27 -90.16)"/><path class="a" d="M324.16,165.72a38.64,38.64,0,0,1-4.18,5.33,3.18,3.18,0,0,0,1.39,5.27c5,1.47,9.37-3.45,13.06-6.15,4.71-3.46,9.47-6.9,14.29-10.21,4.6-3.16,9.27-6.27,14-9.24,4.87-3.08,10.22-6.23,13.89-10.78,1.46-1.82.63-4.79-2-4.8-11.74-.06-23.59,8.22-32.85,14.63a137.1,137.1,0,0,0-14.32,11.34c-3.71,3.38-9.36,7.42-8.27,13l5.77.75a43,43,0,0,1,4-6.36c2-2.94-2.73-5.65-4.77-2.79Z" transform="translate(-104.27 -90.16)"/><path class="b" d="M413.11,165.89c3.78-3.58,6.17-8.86,4.56-14.08-1.33-4.28-5.74-7.84-10.28-7.85-12.42,0-17.51,18-18.52,27.56-.33,3.08,2.83,5.49,5.6,5.59,9.48.35,16.34-8.16,22-14.64a157.17,157.17,0,0,0,29.73-49.82c2.55-6.86,8-18.85-2-22.27a5.28,5.28,0,0,0-5.88,2.39c-10.88,18.49-18.46,38.17-21.83,59.42-1.58,10-2.72,20.61-1.76,30.69.39,4.1,1.66,8,5.78,9.61,3.21,1.27,6.56.94,9-1.54,2.2-2.2-.06-5.63-2.92-5-1.48.32-.35-19-.17-20.88a170.61,170.61,0,0,1,3.72-22.69A167.64,167.64,0,0,1,447.36,98l-5.88,2.4q-1.94-3.37-2-.8c-.24.8-.48,1.59-.74,2.38-.59,1.84-1.21,3.68-1.87,5.5-1.16,3.2-2.44,6.37-3.84,9.48a151.18,151.18,0,0,1-10.25,19,143.1,143.1,0,0,1-13,17.47c-3.55,4.06-9.38,12.55-15.32,12.51l5.6,5.6c-.6-5.51,0-10.92,2.74-15.84,1.17-2.09,4.11-5.94,6.58-3.15,2.23,2.52-.3,5.81-2.18,7.46-4,3.53,2,9.61,5.9,5.9Z" transform="translate(-104.27 -90.16)"/><path class="b" d="M467.32,105.68c.64,1.28-3.19,7.34-3.73,8.56-1.13,2.58-2.22,5.19-3.24,7.81a160.86,160.86,0,0,0-6.05,19.17c-1,4-8.7,31.31,1.21,28.85,5.08-1.26,4.31-11,4.95-14.86A160.1,160.1,0,0,1,465,135.64a150.23,150.23,0,0,1,7.32-19.44c2.31-5,5.29-9.53,2.58-15-2.53-5.08-10.12-.62-7.61,4.45Z" transform="translate(-104.27 -90.16)"/><path class="b" d="M479.52,159.23c-.82,5.6,2.89,9.78,8.58,10,6.2.21,12.78-4.74,17.06-8.78,5.43-5.12,21.07-26.5,4.5-27.5-6.73-.41-12.48,3.44-17.55,7.41s-9.91,8.53-11.94,14.88c-4,12.37,5.78,25,17.75,27.56,7.7,1.66,15.94-.33,22.61-4.35a41.34,41.34,0,0,0,9.2-7.84,34.31,34.31,0,0,0,6.67-10.91c1.48-3.46-2.31-6.91-5.37-4.15-1.47,1.32-3.16,2.2-4.56,3.59s-2.58,2.88-4,4.18a42.23,42.23,0,0,1-8.28,5.87c-5.91,3.16-14.62,4.5-20.29.06-5.5-4.31-6.18-11-1.86-16.35,1.73-2.16,14.38-14.42,17.28-11L508,138.66c.47,4.54-4.94,10.55-7.86,13.55a46,46,0,0,1-5.16,4.51c-.47.35-8.05,5.3-7.88,3.54.41-4.27-6.92-5.32-7.55-1Z" transform="translate(-104.27 -90.16)"/></svg>